<svg version="1.1" id="master-artboard" xmlns="http://www.w3.org/2000/svg" x="0" y="0" viewBox="0 0 200 200" style="enable-background:new 0 0 200 200" xml:space="preserve">
  <style>
    .st0,.st1{fill-rule:evenodd;clip-rule:evenodd;fill:#443917}.st1{fill:#807241}
  </style>
  <path class="st0" d="M61 56.3h77.5v21.5H61V56.3z"/>
  <path class="st0" d="M.9 56.3v55.1c0 10.7 6 23.4 20.2 23.4h44c11.1 0 28.8-19.5 28.8-37V56.2l-93 .1zM197.7 56.3v55.1c0 10.7-6 23.4-20.2 23.4h-44c-11.1 0-28.8-19.5-28.8-37V56.2l93 .1z"/>
  <path class="st1" d="M142.1 128.3h-8.6c-2.5 0-6.2-2.5-8-4-3.9-3.2-7.3-7.4-9.7-11.7-2.4-4.3-4.4-9.6-4.4-14.6V63h8.6v35c0 5.1 2 10.3 4.4 14.6 2.4 4.4 6 8.6 9.8 11.7 1.7 1.4 5.4 4 7.9 4zM7.4 62.8v48.5c0 8.3 4.3 16.8 13.7 16.8h11.2c-9.4 0-13.7-8.5-13.7-16.8V62.8H7.4z"/>
</svg>
